# xmcd
#
# Track frame offsets:
#	150
#	12161
#	21627
#	34499
#	49078
#	60953
#	70478
#	81422
#	93931
#	105953
#	116908
#
# Disc length: 1713 seconds
# Revision: 0
# Processed by: cddbd v1.5.2PL0 Copyright (c) Steve Scherf et al.
# Submitted via: dBpowerAMP V12.0
#
DISCID=9106af0b
DTITLE=Sonny James - Only the Lonely [Captiol] (L)
DYEAR=1969
DGENRE=Country
TTITLE0=Only The Lonely (Know The Way I Feel)
TTITLE1=She Will I Know
TTITLE2=Where Did My Love Go
TTITLE3=Wake Up To Me Gentle
TTITLE4=It's Worth It All
TTITLE5=Fool No 1
TTITLE6=Where Forgotten Things Belong
TTITLE7=Roses Are Red (My Love)
TTITLE8=Out Of This World
TTITLE9=Keep Me In Mind
TTITLE10=Mean Old Mississippi
EXTD=
EXTT0=
EXTT1=
EXTT2=
EXTT3=
EXTT4=
EXTT5=
EXTT6=
EXTT7=
EXTT8=
EXTT9=
EXTT10=
PLAYORDER=
